<svg width="575" height="119" viewBox="0 0 575 119" fill="none" xmlns="http://www.w3.org/2000/svg">
<g clip-path="url(#clip0_1_10)">
<path d="M8.25601 95.024C5.69601 95.024 3.73334 94.3413 2.36801 92.976C1.00268 91.5253 0.320007 89.4773 0.320007 86.832V10.8C0.320007 8.15466 1.00268 6.14933 2.36801 4.784C3.73334 3.41866 5.69601 2.73599 8.25601 2.73599C10.816 2.73599 12.7787 3.41866 14.144 4.784C15.5947 6.14933 16.32 8.15466 16.32 10.8V43.952H14.528C16.4053 39.4293 19.3067 36.016 23.232 33.712C27.2427 31.3227 31.7653 30.128 36.8 30.128C41.8347 30.128 45.9733 31.0667 49.216 32.944C52.4587 34.8213 54.8907 37.68 56.512 41.52C58.1333 45.2747 58.944 50.0533 58.944 55.856V86.832C58.944 89.4773 58.2613 91.5253 56.896 92.976C55.5307 94.3413 53.568 95.024 51.008 95.024C48.448 95.024 46.4427 94.3413 44.992 92.976C43.6267 91.5253 42.944 89.4773 42.944 86.832V56.624C42.944 51.76 42.0053 48.2187 40.128 46C38.336 43.7813 35.52 42.672 31.68 42.672C26.9867 42.672 23.232 44.1653 20.416 47.152C17.6853 50.0533 16.32 53.936 16.32 58.8V86.832C16.32 92.2933 13.632 95.024 8.25601 95.024ZM83.131 94.896C80.571 94.896 78.6083 94.128 77.243 92.592C75.8777 91.056 75.195 88.9227 75.195 86.192V39.216C75.195 36.4 75.8777 34.2667 77.243 32.816C78.6083 31.28 80.571 30.512 83.131 30.512C85.691 30.512 87.6537 31.28 89.019 32.816C90.4697 34.2667 91.195 36.4 91.195 39.216V86.192C91.195 88.9227 90.5123 91.056 89.147 92.592C87.7817 94.128 85.7763 94.896 83.131 94.896ZM83.131 18.608C80.1443 18.608 77.7977 17.8827 76.091 16.432C74.4697 14.896 73.659 12.8053 73.659 10.16C73.659 7.42933 74.4697 5.33866 76.091 3.88799C77.7977 2.43733 80.1443 1.712 83.131 1.712C86.203 1.712 88.5497 2.43733 90.171 3.88799C91.7923 5.33866 92.603 7.42933 92.603 10.16C92.603 12.8053 91.7923 14.896 90.171 16.432C88.5497 17.8827 86.203 18.608 83.131 18.608ZM116.012 95.024C113.367 95.024 111.319 94.3413 109.868 92.976C108.503 91.5253 107.82 89.4773 107.82 86.832V38.448C107.82 35.8027 108.503 33.7973 109.868 32.432C111.233 31.0667 113.153 30.384 115.628 30.384C118.103 30.384 120.023 31.0667 121.388 32.432C122.753 33.7973 123.436 35.8027 123.436 38.448V46.512H122.156C123.351 41.392 125.697 37.5093 129.196 34.864C132.695 32.2187 137.345 30.64 143.148 30.128C144.94 29.9573 146.348 30.4267 147.372 31.536C148.481 32.56 149.121 34.1813 149.292 36.4C149.463 38.5333 148.951 40.2827 147.756 41.648C146.647 42.928 144.94 43.696 142.636 43.952L139.82 44.208C134.615 44.72 130.689 46.3413 128.044 49.072C125.399 51.7173 124.076 55.472 124.076 60.336V86.832C124.076 89.4773 123.393 91.5253 122.028 92.976C120.663 94.3413 118.657 95.024 116.012 95.024ZM187.793 95.28C180.71 95.28 174.609 93.9573 169.489 91.312C164.369 88.6667 160.401 84.912 157.585 80.048C154.854 75.184 153.489 69.424 153.489 62.768C153.489 56.2827 154.812 50.608 157.457 45.744C160.188 40.88 163.9 37.0827 168.593 34.352C173.372 31.536 178.79 30.128 184.849 30.128C189.286 30.128 193.254 30.8533 196.753 32.304C200.337 33.7547 203.366 35.8453 205.841 38.576C208.401 41.3067 210.321 44.6347 211.601 48.56C212.966 52.4 213.649 56.752 213.649 61.616C213.649 63.152 213.094 64.3467 211.985 65.2C210.961 65.968 209.468 66.352 207.505 66.352H166.417V57.136H202.385L200.337 59.056C200.337 55.1307 199.74 51.8453 198.545 49.2C197.436 46.5547 195.772 44.5493 193.553 43.184C191.42 41.7333 188.732 41.008 185.489 41.008C181.905 41.008 178.833 41.8613 176.273 43.568C173.798 45.1893 171.878 47.536 170.513 50.608C169.233 53.5947 168.593 57.1787 168.593 61.36V62.256C168.593 69.2533 170.214 74.5013 173.457 78C176.785 81.4133 181.649 83.12 188.049 83.12C190.268 83.12 192.742 82.864 195.473 82.352C198.289 81.7547 200.934 80.7733 203.409 79.408C205.201 78.384 206.78 77.9573 208.145 78.128C209.51 78.2133 210.577 78.6827 211.345 79.536C212.198 80.3893 212.71 81.456 212.881 82.736C213.052 83.9307 212.796 85.168 212.113 86.448C211.516 87.728 210.449 88.8373 208.913 89.776C205.926 91.6533 202.47 93.0613 198.545 94C194.705 94.8533 191.121 95.28 187.793 95.28Z" fill="#000814"/>
<path d="M234.512 95.024C231.952 95.024 229.989 94.3413 228.624 92.976C227.259 91.5253 226.576 89.4773 226.576 86.832V38.448C226.576 35.8027 227.259 33.7973 228.624 32.432C229.989 31.0667 231.909 30.384 234.384 30.384C236.859 30.384 238.779 31.0667 240.144 32.432C241.509 33.7973 242.192 35.8027 242.192 38.448V47.792L240.784 43.952C242.491 39.6853 245.136 36.3147 248.72 33.84C252.304 31.3653 256.571 30.128 261.52 30.128C266.555 30.128 270.693 31.3227 273.936 33.712C277.179 36.1013 279.44 39.7707 280.72 44.72H278.928C280.635 40.1973 283.451 36.656 287.376 34.096C291.301 31.4507 295.824 30.128 300.944 30.128C305.723 30.128 309.648 31.0667 312.72 32.944C315.877 34.8213 318.224 37.68 319.76 41.52C321.296 45.2747 322.064 50.0533 322.064 55.856V86.832C322.064 89.4773 321.339 91.5253 319.888 92.976C318.523 94.3413 316.56 95.024 314 95.024C311.44 95.024 309.477 94.3413 308.112 92.976C306.747 91.5253 306.064 89.4773 306.064 86.832V56.496C306.064 51.7173 305.253 48.2187 303.632 46C302.096 43.7813 299.451 42.672 295.696 42.672C291.515 42.672 288.229 44.1653 285.84 47.152C283.451 50.0533 282.256 54.1067 282.256 59.312V86.832C282.256 89.4773 281.573 91.5253 280.208 92.976C278.843 94.3413 276.88 95.024 274.32 95.024C271.76 95.024 269.755 94.3413 268.304 92.976C266.939 91.5253 266.256 89.4773 266.256 86.832V56.496C266.256 51.7173 265.445 48.2187 263.824 46C262.288 43.7813 259.685 42.672 256.016 42.672C251.835 42.672 248.549 44.1653 246.16 47.152C243.771 50.0533 242.576 54.1067 242.576 59.312V86.832C242.576 92.2933 239.888 95.024 234.512 95.024ZM369.418 95.28C362.335 95.28 356.234 93.9573 351.114 91.312C345.994 88.6667 342.026 84.912 339.21 80.048C336.479 75.184 335.114 69.424 335.114 62.768C335.114 56.2827 336.437 50.608 339.082 45.744C341.813 40.88 345.525 37.0827 350.218 34.352C354.997 31.536 360.415 30.128 366.474 30.128C370.911 30.128 374.879 30.8533 378.378 32.304C381.962 33.7547 384.991 35.8453 387.466 38.576C390.026 41.3067 391.946 44.6347 393.226 48.56C394.591 52.4 395.274 56.752 395.274 61.616C395.274 63.152 394.719 64.3467 393.61 65.2C392.586 65.968 391.093 66.352 389.13 66.352H348.042V57.136H384.01L381.962 59.056C381.962 55.1307 381.365 51.8453 380.17 49.2C379.061 46.5547 377.397 44.5493 375.178 43.184C373.045 41.7333 370.357 41.008 367.114 41.008C363.53 41.008 360.458 41.8613 357.898 43.568C355.423 45.1893 353.503 47.536 352.138 50.608C350.858 53.5947 350.218 57.1787 350.218 61.36V62.256C350.218 69.2533 351.839 74.5013 355.082 78C358.41 81.4133 363.274 83.12 369.674 83.12C371.893 83.12 374.367 82.864 377.098 82.352C379.914 81.7547 382.559 80.7733 385.034 79.408C386.826 78.384 388.405 77.9573 389.77 78.128C391.135 78.2133 392.202 78.6827 392.97 79.536C393.823 80.3893 394.335 81.456 394.506 82.736C394.677 83.9307 394.421 85.168 393.738 86.448C393.141 87.728 392.074 88.8373 390.538 89.776C387.551 91.6533 384.095 93.0613 380.17 94C376.33 94.8533 372.746 95.28 369.418 95.28Z" fill="#001D3D" fill-opacity="0.8"/>
<path d="M415.881 118.064C413.321 118.064 411.358 117.381 409.993 116.016C408.628 114.651 407.945 112.645 407.945 110V38.448C407.945 35.8027 408.628 33.7973 409.993 32.432C411.358 31.0667 413.278 30.384 415.753 30.384C418.313 30.384 420.276 31.0667 421.641 32.432C423.006 33.7973 423.689 35.8027 423.689 38.448V48.432L422.281 44.592C423.561 40.24 426.164 36.7413 430.089 34.096C434.1 31.4507 438.75 30.128 444.041 30.128C449.502 30.128 454.281 31.4507 458.377 34.096C462.558 36.7413 465.801 40.496 468.105 45.36C470.409 50.1387 471.561 55.8987 471.561 62.64C471.561 69.296 470.409 75.0987 468.105 80.048C465.801 84.912 462.601 88.6667 458.505 91.312C454.409 93.9573 449.588 95.28 444.041 95.28C438.836 95.28 434.27 94 430.345 91.44C426.42 88.7947 423.774 85.3813 422.409 81.2H423.945V110C423.945 112.645 423.22 114.651 421.769 116.016C420.404 117.381 418.441 118.064 415.881 118.064ZM439.561 83.12C442.718 83.12 445.492 82.352 447.881 80.816C450.27 79.28 452.105 77.0187 453.385 74.032C454.75 70.96 455.433 67.1627 455.433 62.64C455.433 55.8133 453.982 50.736 451.081 47.408C448.18 43.9947 444.34 42.288 439.561 42.288C436.404 42.288 433.63 43.056 431.241 44.592C428.852 46.0427 426.974 48.304 425.609 51.376C424.329 54.3627 423.689 58.1173 423.689 62.64C423.689 69.3813 425.14 74.5013 428.041 78C430.942 81.4133 434.782 83.12 439.561 83.12ZM506.071 95.28C498.988 95.28 493.655 93.2747 490.071 89.264C486.487 85.168 484.695 79.1947 484.695 71.344V10.8C484.695 8.15466 485.378 6.14933 486.743 4.784C488.108 3.41866 490.071 2.73599 492.631 2.73599C495.191 2.73599 497.154 3.41866 498.519 4.784C499.97 6.14933 500.695 8.15466 500.695 10.8V70.576C500.695 74.5013 501.506 77.4027 503.127 79.28C504.834 81.1573 507.223 82.096 510.295 82.096C510.978 82.096 511.618 82.096 512.215 82.096C512.812 82.0107 513.41 81.9253 514.007 81.84C515.202 81.6693 516.012 82.0107 516.439 82.864C516.866 83.632 517.079 85.2533 517.079 87.728C517.079 89.8613 516.652 91.5253 515.799 92.72C514.946 93.9147 513.538 94.64 511.575 94.896C510.722 94.9813 509.826 95.0667 508.887 95.152C507.948 95.2373 507.01 95.28 506.071 95.28ZM547.857 95.28C544.188 95.28 540.305 94.896 536.209 94.128C532.113 93.36 528.444 92.0373 525.201 90.16C523.836 89.3067 522.854 88.3253 522.257 87.216C521.745 86.0213 521.532 84.8693 521.617 83.76C521.788 82.5653 522.214 81.5413 522.897 80.688C523.665 79.8347 524.604 79.28 525.713 79.024C526.908 78.768 528.188 78.9813 529.553 79.664C532.966 81.2853 536.166 82.4373 539.153 83.12C542.14 83.7173 545.084 84.016 547.985 84.016C552.081 84.016 555.11 83.3333 557.073 81.968C559.121 80.5173 560.145 78.64 560.145 76.336C560.145 74.3733 559.462 72.88 558.097 71.856C556.817 70.7467 554.854 69.936 552.209 69.424L539.409 66.992C534.118 65.968 530.065 64.048 527.249 61.232C524.518 58.3307 523.153 54.6187 523.153 50.096C523.153 46 524.262 42.4587 526.481 39.472C528.785 36.4853 531.942 34.1813 535.953 32.56C539.964 30.9387 544.572 30.128 549.777 30.128C553.532 30.128 557.03 30.5547 560.273 31.408C563.601 32.176 566.801 33.4133 569.873 35.12C571.153 35.8027 572.006 36.6987 572.433 37.808C572.945 38.9173 573.073 40.0693 572.817 41.264C572.561 42.3733 572.049 43.3973 571.281 44.336C570.513 45.1893 569.532 45.744 568.337 46C567.228 46.1707 565.948 45.9147 564.497 45.232C561.852 43.8667 559.292 42.8853 556.817 42.288C554.428 41.6907 552.124 41.392 549.905 41.392C545.724 41.392 542.609 42.1173 540.561 43.568C538.598 45.0187 537.617 46.9387 537.617 49.328C537.617 51.12 538.214 52.6133 539.409 53.808C540.604 55.0027 542.438 55.8133 544.913 56.24L557.713 58.672C563.26 59.696 567.441 61.5733 570.257 64.304C573.158 67.0347 574.609 70.704 574.609 75.312C574.609 81.5413 572.177 86.448 567.313 90.032C562.449 93.5307 555.964 95.28 547.857 95.28Z" fill="#003566"/>
</g>
<circle cx="83" cy="10" r="9.5" fill="#F81A1A" stroke="#F81A1A"/>
<defs>
<clipPath id="clip0_1_10">
<rect width="575" height="118" fill="white" transform="translate(0 1)"/>
</clipPath>
</defs>
</svg>
